<?xml version="1.0" encoding="UTF-8"?>
<svg id="Layer_2" data-name="Layer 2" xmlns="http://www.w3.org/2000/svg" viewBox="0 0 434.74 434.74">
  <defs>
    <style>
      .cls-1 {
        fill: #adadad;
      }
    </style>
  </defs>
  <g id="Layer_1-2" data-name="Layer 1">
    <g>
      <rect class="cls-1" x="213.87" y="263.07" width="7.01" height="171.67" rx="3.5" ry="3.5"/>
      <rect class="cls-1" x="261.32" y="213.87" width="173.42" height="7.01" rx="3.5" ry="3.5"/>
      <rect class="cls-1" x="277.81" y="220.82" width="7.01" height="120.98" rx="3.5" ry="3.5" transform="translate(-116.52 281.31) rotate(-45)"/>
      <path class="cls-1" d="M258.52,171.27l-19.98,19.98c-1.37,1.37-1.37,3.59,0,4.95h0c1.37,1.37,3.59,1.37,4.95,0l80.59-80.59c1.37-1.37,1.37-3.59,0-4.95h0c-1.37-1.37-3.59-1.37-4.95,0l-44.48,44.48c-2.74,2.74-7.09,3.07-10.16.71-10.78-8.29-23.45-13.54-36.93-15.3-3.84-.5-6.68-3.81-6.68-7.68V3.5c0-1.93-1.57-3.5-3.5-3.5h0c-1.93,0-3.5,1.57-3.5,3.5v129.37c0,3.86-2.83,7.18-6.66,7.68-13.76,1.81-26.4,7.24-36.92,15.31-3.08,2.36-7.43,2.04-10.17-.7l-44.51-44.51c-1.37-1.37-3.59-1.37-4.95,0h0c-1.37,1.37-1.37,3.59,0,4.95l44.51,44.51c2.74,2.74,3.06,7.09.7,10.17-8.07,10.52-13.5,23.16-15.31,36.92-.5,3.83-3.82,6.66-7.68,6.66H3.5c-1.93,0-3.5,1.57-3.5,3.5h0c0,1.94,1.57,3.5,3.5,3.5h129.36c3.87,0,7.18,2.85,7.68,6.68,1.76,13.48,7.01,26.15,15.3,36.93,2.36,3.07,2.03,7.42-.71,10.16l-44.48,44.48c-1.37,1.37-1.37,3.59,0,4.95h0c1.37,1.37,3.59,1.37,4.95,0l80.59-80.59c1.37-1.37,1.37-3.59,0-4.95h0c-1.37-1.37-3.59-1.37-4.95,0l-19.98,19.98c-3.43,3.43-9.14,2.91-11.9-1.08-5.75-8.28-9.62-17.66-11.38-27.59-.83-4.7,2.91-8.98,7.68-8.98h14.26c1.93,0,3.5-1.57,3.5-3.5h0c0-1.94-1.57-3.5-3.5-3.5h-14.23c-4.87,0-8.52-4.43-7.65-9.22,1.83-10,5.78-19.28,11.37-27.34,2.76-3.98,8.46-4.49,11.89-1.06l19.95,19.95c1.37,1.37,3.59,1.37,4.95,0h0c1.37-1.37,1.37-3.59,0-4.95l-19.95-19.95c-3.43-3.43-2.92-9.13,1.06-11.89,8.06-5.59,17.33-9.54,27.34-11.37,4.79-.88,9.22,2.78,9.22,7.65v14.23c0,1.93,1.57,3.5,3.5,3.5h0c1.93,0,3.5-1.57,3.5-3.5v-14.26c0-4.77,4.28-8.51,8.98-7.68,9.93,1.76,19.3,5.63,27.59,11.38,3.99,2.77,4.51,8.47,1.08,11.9Z"/>
    </g>
  </g>
</svg>