<svg width="131" height="44" viewBox="0 0 131 44" fill="none" xmlns="http://www.w3.org/2000/svg">
<mask id="mask0_1002_2" style="mask-type:luminance" maskUnits="userSpaceOnUse" x="0" y="0" width="131" height="44">
<path d="M0 0H131V43.96H0V0Z" fill="white"/>
</mask>
<g mask="url(#mask0_1002_2)">
<path d="M131 0V32.83H123.53V0H131ZM120.78 11.08V32.89H114.14V31.01C113.3 31.83 112.34 32.45 111.28 32.89C110.21 33.35 109.05 33.59 107.81 33.59C106.25 33.59 104.8 33.3 103.47 32.72C102.14 32.11 100.98 31.28 100 30.24C99.01 29.19 98.23 27.97 97.65 26.58C97.1 25.16 96.83 23.63 96.83 22C96.83 20.37 97.1 18.86 97.65 17.47C98.23 16.05 99.01 14.81 100 13.76C100.978 12.718 102.159 11.8875 103.47 11.32C104.8 10.71 106.25 10.4 107.81 10.4C109.05 10.4 110.21 10.63 111.28 11.1C112.35 11.54 113.31 12.16 114.14 12.98V11.1H120.78V11.08ZM109.01 26.95C110.37 26.95 111.48 26.49 112.35 25.55C113.25 24.62 113.7 23.43 113.7 21.98C113.7 20.53 113.25 19.33 112.35 18.41C111.48 17.48 110.36 17.01 109.01 17.01C107.66 17.01 106.52 17.47 105.62 18.41C104.75 19.34 104.32 20.53 104.32 21.98C104.32 23.43 104.76 24.63 105.62 25.55C106.52 26.48 107.65 26.95 109.01 26.95ZM86.17 0C88.14 0 89.82 0.28 91.21 0.83C92.6 1.38 93.77 2.15 94.73 3.14C95.71 4.16 96.48 5.32 97.03 6.63C97.58 7.94 97.85 9.35 97.85 10.86C97.85 12.37 97.58 13.78 97.03 15.09C96.4902 16.3879 95.7098 17.5721 94.73 18.58C93.78 19.57 92.6 20.34 91.21 20.89C89.82 21.44 88.14 21.72 86.17 21.72H82.57V32.88H74.97V0H86.17ZM85.08 14.96C86.1 14.96 86.87 14.86 87.43 14.65C88.01 14.42 88.49 14.12 88.86 13.78C89.64 13.05 90.03 12.08 90.03 10.86C90.03 9.64 89.64 8.67 88.86 7.94C88.48 7.59 88.01 7.31 87.43 7.11C86.88 6.88 86.1 6.76 85.08 6.76H82.56V14.96H85.08ZM46.97 11.08H55.22L60.82 21.54H60.91L65.9 11.08H73.54L57.17 43.96H49.57L57.04 28.92L46.97 11.08ZM45.5 11.08V32.89H38.86V31.01C38.02 31.83 37.06 32.45 36 32.89C34.93 33.35 33.77 33.59 32.53 33.59C30.97 33.59 29.52 33.3 28.19 32.72C26.86 32.11 25.7 31.28 24.72 30.24C23.74 29.19 22.95 27.97 22.37 26.58C21.82 25.16 21.55 23.63 21.55 22C21.55 20.37 21.82 18.86 22.37 17.47C22.95 16.05 23.73 14.81 24.72 13.76C25.6958 12.7158 26.8773 11.885 28.19 11.32C29.52 10.71 30.97 10.4 32.53 10.4C33.77 10.4 34.93 10.63 36 11.1C37.07 11.54 38.03 12.16 38.86 12.98V11.1H45.5V11.08ZM33.73 26.95C35.09 26.95 36.2 26.49 37.08 25.55C37.98 24.62 38.43 23.43 38.43 21.98C38.43 20.53 37.98 19.33 37.08 18.41C36.21 17.48 35.09 17.01 33.73 17.01C32.37 17.01 31.24 17.47 30.34 18.41C29.47 19.34 29.04 20.53 29.04 21.98C29.04 23.43 29.48 24.63 30.34 25.55C31.24 26.48 32.37 26.95 33.73 26.95ZM11.2 0C13.17 0 14.85 0.28 16.24 0.83C17.63 1.38 18.8 2.15 19.76 3.14C20.74 4.16 21.51 5.32 22.06 6.63C22.61 7.94 22.88 9.35 22.88 10.86C22.88 12.37 22.61 13.78 22.06 15.09C21.5202 16.3879 20.7398 17.5721 19.76 18.58C18.81 19.57 17.63 20.34 16.24 20.89C14.85 21.44 13.17 21.72 11.2 21.72H7.6V32.88H0V0H11.2ZM10.12 14.96C11.14 14.96 11.91 14.86 12.47 14.65C13.05 14.42 13.53 14.12 13.9 13.78C14.68 13.05 15.07 12.08 15.07 10.86C15.07 9.64 14.68 8.67 13.9 7.94C13.52 7.59 13.05 7.31 12.47 7.11C11.92 6.88 11.14 6.76 10.12 6.76H7.6V14.96H10.12Z" fill="white"/>
</g>
</svg>
